<?xml version="1.0" encoding="utf-8"?>
<!-- Generator: Adobe Illustrator 21.0.2, SVG Export Plug-In . SVG Version: 6.00 Build 0)  -->
<svg version="1.1" id="Capa_1" xmlns="http://www.w3.org/2000/svg" xmlns:xlink="http://www.w3.org/1999/xlink" x="0px" y="0px"
	 viewBox="0 0 21 19" style="enable-background:new 0 0 21 19;" xml:space="preserve">
<style type="text/css">
	.st0{fill:#F4F4F4;}
</style>
<g>
	<polygon class="st0" points="9.6,11.4 6.8,8.5 5.9,9.3 9.7,13.3 15.6,5.1 14.6,4.4 	"/>
	<path class="st0" d="M1.4,19l0.9-4.9C0.8,12.6,0,10.6,0,8.6C0,3.9,4.7,0,10.5,0S21,3.9,21,8.6s-4.7,8.6-10.5,8.6
		c-1,0-2-0.1-2.9-0.3L1.4,19z M10.5,1C5.3,1,1,4.4,1,8.6c0,1.8,0.8,3.6,2.2,4.9l0.2,0.2l-0.7,3.8l4.8-1.6l0.1,0
		c0.9,0.2,1.9,0.3,2.8,0.3c5.2,0,9.5-3.4,9.5-7.6C20,4.4,15.7,1,10.5,1z"/>
</g>
</svg>
