<?xml version="1.0" encoding="utf-8"?>
<!-- Generator: Adobe Illustrator 21.0.2, SVG Export Plug-In . SVG Version: 6.00 Build 0)  -->
<svg version="1.1" id="Capa_1" xmlns="http://www.w3.org/2000/svg" xmlns:xlink="http://www.w3.org/1999/xlink" x="0px" y="0px"
	 viewBox="0 0 18 18" style="enable-background:new 0 0 18 18;" xml:space="preserve">
<style type="text/css">
	.st0{fill:#3A5675;}
</style>
<path class="st0" d="M5.4,16.5C4.2,16.5,3,16,2.1,15c-0.9-0.9-1.2-1.8-1.2-3.2c0-1.3,0.5-2.5,1.4-3.4L9.7,1l0.6,0.6L2.9,9.1
	c-0.7,0.7-1.2,1.7-1.2,2.8c0,1.1,0.3,1.9,1,2.6c1.5,1.5,3.9,1.6,5.4,0l7.5-7.5c0.9-0.9,0.9-2.2,0-3.1c-0.8-0.8-2.3-0.8-3.1,0
	l-6.9,6.9c-0.2,0.2-0.5,0.8-0.1,1.3c0.5,0.5,1.1,0.6,1.6,0.1c0.6-0.6,4.5-4.5,4.5-4.5l0.6,0.6c-0.2,0.2-3.9,4-4.6,4.6
	c-0.9,0.8-1.9,0.7-2.8-0.2c-0.8-1-0.4-2.1,0.1-2.5l6.9-6.9c1.2-1.2,3.2-1.2,4.3,0c1.2,1.2,1.2,3.1,0,4.3l-7.5,7.5
	C7.8,16,6.6,16.5,5.4,16.5z"/>
</svg>
