<?xml version="1.0" encoding="utf-8"?>
<!-- Generator: Adobe Illustrator 23.0.1, SVG Export Plug-In . SVG Version: 6.00 Build 0)  -->
<svg version="1.1" id="Capa_1" xmlns="http://www.w3.org/2000/svg" xmlns:xlink="http://www.w3.org/1999/xlink" x="0px" y="0px"
	 viewBox="0 0 795 630" style="enable-background:new 0 0 795 630;" xml:space="preserve">
<style type="text/css">
	.st0{fill:#DAE4EE;}
	.st1{fill:#F7FAFC;}
	.st2{fill:#5185BA;}
</style>
<path class="st0" d="M378.09,480.28h-5v-2h5V480.28z M363.09,480.28h-5v-2h5V480.28z M348.09,480.28h-5v-2h5V480.28z M333.09,480.28
	h-5v-2h5V480.28z M318.09,480.28h-5v-2h5V480.28z M303.09,480.28h-5v-2h5V480.28z M288.09,480.28h-5v-2h5V480.28z M273.09,480.28h-5
	v-2h5V480.28z M258.09,480.28h-5v-2h5V480.28z M243.09,480.28h-5v-2h5V480.28z M228.09,480.28h-5v-2h5V480.28z M213.09,480.28h-5v-2
	h5V480.28z M198.09,480.28h-5v-2h5V480.28z M183.09,480.28h-5v-2h5V480.28z M168.09,480.28h-5v-2h5V480.28z M153.09,480.28h-5v-2h5
	V480.28z M138.09,480.28h-5v-2h5V480.28z M123.09,480.28h-5v-2h5V480.28z M108.09,480.28h-5v-2h5V480.28z M93.09,480.28h-5v-2h5
	V480.28z M78.09,480.28h-5v-2h5V480.28z M63.09,480.28h-5v-2h5V480.28z M48.09,480.28h-5v-2h5V480.28z M33.09,480.28h-5v-2h5V480.28
	z M18.09,480.28h-5v-2h5V480.28z M3.09,480.28H1.76v-2h1.33V480.28z M388.62,478.82h-2v-5h2V478.82z M388.62,463.82h-2v-5h2V463.82z
	 M388.62,448.82h-2v-5h2V448.82z M388.62,433.82h-2v-5h2V433.82z M388.62,418.82h-2v-5h2V418.82z M388.62,403.82h-2v-5h2V403.82z
	 M388.62,388.82h-2v-5h2V388.82z M388.62,373.82h-2v-5h2V373.82z M388.62,358.82h-2v-5h2V358.82z M388.62,343.82h-2v-5h2V343.82z
	 M388.62,328.82h-2v-5h2V328.82z M388.62,313.82h-2v-5h2V313.82z M388.62,298.82h-2v-5h2V298.82z M388.62,283.82h-2v-5h2V283.82z
	 M388.62,268.82h-2v-5h2V268.82z M388.62,253.82h-2v-5h2V253.82z M388.62,238.82h-2v-5h2V238.82z M388.62,223.82h-2v-5h2V223.82z
	 M388.62,208.82h-2v-5h2V208.82z M388.62,193.82h-2v-5h2V193.82z M388.62,178.82h-2v-5h2V178.82z M388.62,163.82h-2v-5h2V163.82z
	 M388.62,148.82h-2v-5h2V148.82z M388.62,133.82h-2v-5h2V133.82z M792.36,129.56h-5v-2h5V129.56z M777.36,129.56h-5v-2h5V129.56z
	 M762.36,129.56h-5v-2h5V129.56z M747.36,129.56h-5v-2h5V129.56z M732.36,129.56h-5v-2h5V129.56z M717.36,129.56h-5v-2h5V129.56z
	 M702.36,129.56h-5v-2h5V129.56z M687.36,129.56h-5v-2h5V129.56z M672.36,129.56h-5v-2h5V129.56z M657.36,129.56h-5v-2h5V129.56z
	 M642.36,129.56h-5v-2h5V129.56z M627.36,129.56h-5v-2h5V129.56z M612.36,129.56h-5v-2h5V129.56z M597.36,129.56h-5v-2h5V129.56z
	 M582.36,129.56h-5v-2h5V129.56z M567.36,129.56h-5v-2h5V129.56z M552.36,129.56h-5v-2h5V129.56z M537.36,129.56h-5v-2h5V129.56z
	 M522.36,129.56h-5v-2h5V129.56z M507.36,129.56h-5v-2h5V129.56z M492.36,129.56h-5v-2h5V129.56z M477.36,129.56h-5v-2h5V129.56z
	 M462.36,129.56h-5v-2h5V129.56z M447.36,129.56h-5v-2h5V129.56z M432.36,129.56h-5v-2h5V129.56z M417.36,129.56h-5v-2h5V129.56z
	 M402.36,129.56h-5v-2h5V129.56z"/>
<circle class="st1" cx="388.15" cy="318.87" r="106.43"/>
<g>
	<path class="st2" d="M432.11,334.22h-87.37v-65.57h87.37V334.22z M346.74,332.22h83.37v-61.57h-83.37V332.22z"/>
	<rect x="387.43" y="334.85" class="st2" width="2" height="28.22"/>
	<rect x="371.62" y="363.09" class="st2" width="36.16" height="2"/>
	<path class="st2" d="M387.41,325.76c-4.31,0-7.83-3.56-7.83-7.93c0-4.37,3.51-7.93,7.83-7.93s7.83,3.56,7.83,7.93
		C395.23,322.21,391.72,325.76,387.41,325.76z M387.41,311.91c-3.21,0-5.83,2.66-5.83,5.93s2.61,5.93,5.83,5.93
		c3.27,0,5.83-2.6,5.83-5.93C393.23,314.57,390.62,311.91,387.41,311.91z"/>
	<path class="st2" d="M387.21,294.8c-1.93,0-3.78-0.76-5.21-2.15c-1.54-1.49-2.42-3.6-2.42-5.78c0-4.37,3.51-7.93,7.83-7.93
		s7.83,3.56,7.83,7.93s-3.51,7.93-7.83,7.93C387.34,294.8,387.27,294.8,387.21,294.8z M387.41,280.94c-3.21,0-5.83,2.66-5.83,5.93
		c0,1.64,0.66,3.23,1.81,4.35c1.09,1.06,2.51,1.6,3.99,1.58c3.29,0,5.85-2.6,5.85-5.93C393.23,283.6,390.62,280.94,387.41,280.94z"
		/>
	<path class="st2" d="M359.09,295.51c-1.93,0-3.78-0.76-5.21-2.15c-1.54-1.49-2.42-3.6-2.42-5.78c0-4.37,3.51-7.93,7.83-7.93
		s7.83,3.56,7.83,7.93s-3.51,7.93-7.83,7.93C359.23,295.51,359.16,295.51,359.09,295.51z M359.29,281.65
		c-3.21,0-5.83,2.66-5.83,5.93c0,1.65,0.66,3.23,1.81,4.35c1.09,1.06,2.49,1.61,3.99,1.58c3.29,0,5.85-2.6,5.85-5.93
		C365.12,284.31,362.5,281.65,359.29,281.65z"/>
	<path class="st2" d="M417.13,295.51c-0.07,0-0.14,0-0.21,0c-4.29,0-7.8-3.56-7.8-7.93s3.51-7.93,7.83-7.93s7.83,3.56,7.83,7.93
		c0,2.18-0.88,4.29-2.42,5.78C420.93,294.75,419.08,295.51,417.13,295.51z M416.95,281.65c-3.21,0-5.83,2.66-5.83,5.93
		s2.61,5.93,5.83,5.93c1.51,0.04,2.93-0.52,4.01-1.58c1.15-1.12,1.81-2.71,1.81-4.35C422.78,284.26,420.22,281.65,416.95,281.65z"/>
	
		<rect x="388.58" y="302.22" transform="matrix(0.7247 -0.6891 0.6891 0.7247 -98.0346 361.0555)" class="st2" width="28.53" height="2"/>
	
		<rect x="371.48" y="288.71" transform="matrix(0.7182 -0.6959 0.6959 0.7182 -105.4558 344.4168)" class="st2" width="2" height="27.38"/>
	<rect x="386.41" y="293.9" class="st2" width="2" height="16.91"/>
</g>
<g>
	<rect x="1.06" y="519.01" class="st0" width="2.5" height="2"/>
	<path class="st0" d="M265.12,521.01h-5.13v-2h5.13V521.01z M249.73,521.01h-5.13v-2h5.13V521.01z M234.35,521.01h-5.13v-2h5.13
		V521.01z M218.96,521.01h-5.13v-2h5.13V521.01z M203.57,521.01h-5.13v-2h5.13V521.01z M188.19,521.01h-5.13v-2h5.13V521.01z
		 M172.8,521.01h-5.13v-2h5.13V521.01z M157.42,521.01h-5.13v-2h5.13V521.01z M142.03,521.01h-5.13v-2h5.13V521.01z M126.65,521.01
		h-5.13v-2h5.13V521.01z M111.26,521.01h-5.13v-2h5.13V521.01z M95.87,521.01h-5.13v-2h5.13V521.01z M80.49,521.01h-5.13v-2h5.13
		V521.01z M65.1,521.01h-5.13v-2h5.13V521.01z M49.72,521.01h-5.13v-2h5.13V521.01z M34.33,521.01H29.2v-2h5.13V521.01z
		 M18.95,521.01h-5.13v-2h5.13V521.01z"/>
	<rect x="275.37" y="519.01" class="st0" width="2.5" height="2"/>
</g>
<g>
	<rect x="1.06" y="555.71" class="st0" width="2.5" height="2"/>
	<path class="st0" d="M170.11,557.71h-5.05v-2h5.05V557.71z M154.97,557.71h-5.05v-2h5.05V557.71z M139.83,557.71h-5.05v-2h5.05
		V557.71z M124.69,557.71h-5.05v-2h5.05V557.71z M109.55,557.71h-5.05v-2h5.05V557.71z M94.4,557.71h-5.05v-2h5.05V557.71z
		 M79.26,557.71h-5.05v-2h5.05V557.71z M64.12,557.71h-5.05v-2h5.05V557.71z M48.98,557.71h-5.05v-2h5.05V557.71z M33.84,557.71
		h-5.05v-2h5.05V557.71z M18.7,557.71h-5.05v-2h5.05V557.71z"/>
	<rect x="180.2" y="555.71" class="st0" width="2.5" height="2"/>
</g>
<circle class="st0" cx="272.96" cy="520.73" r="7.67"/>
<circle class="st0" cx="190.62" cy="556.76" r="7.67"/>
<circle class="st0" cx="134" cy="620.63" r="7.67"/>
<g>
	<rect x="793" y="87.55" class="st0" width="2.5" height="2"/>
	<path class="st0" d="M782.75,89.55h-5.13v-2h5.13V89.55z M767.36,89.55h-5.13v-2h5.13V89.55z M751.98,89.55h-5.13v-2h5.13V89.55z
		 M736.59,89.55h-5.13v-2h5.13V89.55z M721.2,89.55h-5.13v-2h5.13V89.55z M705.82,89.55h-5.13v-2h5.13V89.55z M690.43,89.55h-5.13
		v-2h5.13V89.55z M675.05,89.55h-5.13v-2h5.13V89.55z M659.66,89.55h-5.13v-2h5.13V89.55z M644.28,89.55h-5.13v-2h5.13V89.55z
		 M628.89,89.55h-5.13v-2h5.13V89.55z M613.5,89.55h-5.13v-2h5.13V89.55z M598.12,89.55h-5.13v-2h5.13V89.55z M582.73,89.55h-5.13
		v-2h5.13V89.55z M567.35,89.55h-5.13v-2h5.13V89.55z M551.96,89.55h-5.13v-2h5.13V89.55z M536.58,89.55h-5.13v-2h5.13V89.55z"/>
	<rect x="518.69" y="87.55" class="st0" width="2.5" height="2"/>
</g>
<g>
	<rect x="793" y="48.85" class="st0" width="2.5" height="2"/>
	<path class="st0" d="M782.91,50.85h-5.05v-2h5.05V50.85z M767.77,50.85h-5.05v-2h5.05V50.85z M752.63,50.85h-5.05v-2h5.05V50.85z
		 M737.49,50.85h-5.05v-2h5.05V50.85z M722.35,50.85h-5.05v-2h5.05V50.85z M707.21,50.85h-5.05v-2h5.05V50.85z M692.07,50.85h-5.05
		v-2h5.05V50.85z M676.92,50.85h-5.05v-2h5.05V50.85z M661.78,50.85h-5.05v-2h5.05V50.85z M646.64,50.85h-5.05v-2h5.05V50.85z
		 M631.5,50.85h-5.05v-2h5.05V50.85z"/>
	<rect x="613.86" y="48.85" class="st0" width="2.5" height="2"/>
</g>
<circle class="st0" cx="523.6" cy="87.83" r="7.67"/>
<g>
	<rect x="793" y="165.95" class="st0" width="2.5" height="2"/>
	<path class="st0" d="M782.75,167.95h-5.13v-2h5.13V167.95z M767.36,167.95h-5.13v-2h5.13V167.95z M751.98,167.95h-5.13v-2h5.13
		V167.95z M736.59,167.95h-5.13v-2h5.13V167.95z M721.2,167.95h-5.13v-2h5.13V167.95z M705.82,167.95h-5.13v-2h5.13V167.95z
		 M690.43,167.95h-5.13v-2h5.13V167.95z M675.05,167.95h-5.13v-2h5.13V167.95z M659.66,167.95h-5.13v-2h5.13V167.95z M644.28,167.95
		h-5.13v-2h5.13V167.95z M628.89,167.95h-5.13v-2h5.13V167.95z M613.5,167.95h-5.13v-2h5.13V167.95z M598.12,167.95h-5.13v-2h5.13
		V167.95z M582.73,167.95h-5.13v-2h5.13V167.95z M567.35,167.95h-5.13v-2h5.13V167.95z M551.96,167.95h-5.13v-2h5.13V167.95z
		 M536.58,167.95h-5.13v-2h5.13V167.95z"/>
	<rect x="518.69" y="165.95" class="st0" width="2.5" height="2"/>
</g>
<circle class="st0" cx="523.6" cy="166.23" r="7.67"/>
<circle class="st0" cx="605.95" cy="49.8" r="7.67"/>
<path class="st0" d="M135.12,625.61h-2v-1.77h2V625.61z M135.12,613.84h-2v-5h2V613.84z M135.12,598.84h-2v-5h2V598.84z
	 M125.9,593.06h-5v-2h5V593.06z M110.9,593.06h-5v-2h5V593.06z M95.9,593.06h-5v-2h5V593.06z M80.9,593.06h-5v-2h5V593.06z
	 M65.9,593.06h-5v-2h5V593.06z M50.9,593.06h-5v-2h5V593.06z M35.9,593.06h-5v-2h5V593.06z M20.9,593.06h-5v-2h5V593.06z
	 M5.9,593.06h-5v-2h5V593.06z"/>
</svg>
