<svg id="SvgjsSvg1011" xmlns="http://www.w3.org/2000/svg" version="1.1" xmlns:xlink="http://www.w3.org/1999/xlink" xmlns:svgjs="http://svgjs.com/svgjs" width="28" height="28" viewBox="0 0 28 28"><title>cortar copia</title><desc>Created with Avocode.</desc><defs id="SvgjsDefs1012"></defs><path id="SvgjsPath1013" d="M726.751 280.535C719.2769999999999 280.535 713.196 274.446 713.196 266.963C713.196 259.478 719.277 253.389 726.751 253.389C734.226 253.389 740.307 259.478 740.307 266.963C740.307 274.446 734.226 280.535 726.751 280.535ZM726.751 254.85C720.081 254.85 714.655 260.283 714.655 266.96299999999997C714.655 273.64 720.081 279.07399999999996 726.751 279.07399999999996C733.4209999999999 279.07399999999996 738.847 273.63999999999993 738.847 266.96299999999997C738.847 260.28299999999996 733.4209999999999 254.84999999999997 726.751 254.84999999999997ZM727.681 266.773L732.0260000000001 271.21900000000005L730.95 272.27400000000006L726.628 267.85100000000006L722.552 272.0210000000001L721.476 270.9670000000001L725.575 266.7730000000001L721.845 262.9570000000001L722.921 261.90300000000013L726.628 265.69600000000014L730.581 261.65000000000015L731.658 262.70500000000015Z " fill="#9a502f" fill-opacity="1" transform="matrix(1,0,0,1,-713,-253)"></path></svg>