<svg id="SvgjsSvg1000" xmlns="http://www.w3.org/2000/svg" version="1.1" xmlns:xlink="http://www.w3.org/1999/xlink" xmlns:svgjs="http://svgjs.com/svgjs" width="29" height="28" viewBox="0 0 29 28"><title>contestar copia</title><desc>Created with Avocode.</desc><defs id="SvgjsDefs1001"></defs><path id="SvgjsPath1007" d="M652.55 280.535C645.0759999999999 280.535 638.995 274.446 638.995 266.963C638.995 259.478 645.076 253.389 652.55 253.389C660.025 253.389 666.106 259.478 666.106 266.963C666.106 274.446 660.025 280.535 652.55 280.535ZM652.55 254.85C645.88 254.85 640.454 260.283 640.454 266.96299999999997C640.454 273.64 645.88 279.07399999999996 652.55 279.07399999999996C659.221 279.07399999999996 664.646 273.63999999999993 664.646 266.96299999999997C664.646 260.28299999999996 659.221 254.84999999999997 652.55 254.84999999999997ZM657.225 261.495L658.453 262.367L651.3299999999999 272.428L646.6479999999999 267.536L647.7349999999999 266.493L651.156 270.067Z " fill="#61bc7f" fill-opacity="1" transform="matrix(1,0,0,1,-638,-253)"></path></svg>