<?xml version="1.0" encoding="utf-8"?>
<!-- Generator: Adobe Illustrator 21.0.2, SVG Export Plug-In . SVG Version: 6.00 Build 0)  -->
<svg version="1.1" id="SvgjsSvg1023" xmlns:svgjs="http://svgjs.com/svgjs"
	 xmlns="http://www.w3.org/2000/svg" xmlns:xlink="http://www.w3.org/1999/xlink" x="0px" y="0px" viewBox="0 0 28 28"
	 style="enable-background:new 0 0 28 28;" xml:space="preserve">
<style type="text/css">
	.st0{fill:#56779C;}
	.st1{fill:#507196;}
</style>
<title>silenciar</title>
<desc>Created with Avocode.</desc>
<path id="SvgjsPath1025" class="st0" d="M14.5,1C7,1,1,7,1,14.5C1,21.9,7,28,14.5,28C21.9,28,28,21.9,28,14.5C28,7,21.9,1,14.5,1z
	 M14.5,26.5c-6.6,0-12-5.4-12-12.1s5.4-12.1,12-12.1c6.7,0,12.1,5.4,12.1,12.1S21.1,26.5,14.5,26.5z"/>
<path class="st1" d="M16.5,22.5L11,18.3V11l5.5-4.2V22.5z M12,17.8l3.5,2.7V8.7L12,11.4V17.8z M11,18.1H8C7.5,18.1,7,17.6,7,17v-4.8
	c0-0.6,0.5-1.1,1.1-1.1H11v1H8c0,0-0.1,0-0.1,0.1V17c0,0.1,0,0.1,0.1,0.1H11V18.1z"/>
<rect x="5" y="14.6" transform="matrix(0.5687 -0.8225 0.8225 0.5687 -6.1722 18.3992)" class="st1" width="18.8" height="1"/>
</svg>
