<svg version="1.1" id="Capa_1" xmlns="http://www.w3.org/2000/svg" xmlns:xlink="http://www.w3.org/1999/xlink" x="0px" y="0px"
	 viewBox="0 0 377 159" style="enable-background:new 0 0 377 159;" xml:space="preserve">
<defs>
    <style type="text/css">
	   .lin-base{
            fill:none;
            stroke:#ffffff;
            stroke-width:2;
            stroke-miterlimit:10;
            stroke-dasharray:400;
            stroke-dashoffset:0;
            -webkit-animation:dasha 4s linear forwards;
            -o-animation:dasha 4s linear forwards;
            -moz-animation:dasha 4s linear forwards;
            animation:dasha 4s linear forwards;
            }
        @-webkit-keyframes dasha{
            from{
                stroke-dashoffset:400;
                }
            to{
                stroke-dashoffset:0;
                }
            }
        .lin-peq{
            fill:none;
            stroke:#ffffff;
            stroke-width:2;
            stroke-miterlimit:10;
            stroke-dasharray:1000;
            stroke-dashoffset:0;
            -webkit-animation:dashpq 4s linear forwards;
            -o-animation:dashpq 4s linear forwards;
            -moz-animation:dashpq 4s linear forwards;
            animation:dashpq 4s linear forwards;
            -webkit-animation-delay: 3s;
            -o-animation-delay: 3s;
            -moz-animation-delay: 3s;
            animation-delay: 3s;
            }
        @-webkit-keyframes dashpq{
            from{
                stroke-dashoffset:1000;
                }
            to{
                stroke-dashoffset:0;
                }
            }
        .cuadrado{
            fill:none;
            stroke:#ffffff;
            stroke-width:2;
            stroke-miterlimit:10;
            stroke-dasharray:1300;
            stroke-dashoffset:0;
            -webkit-animation:dash 10s linear forwards;
            -o-animation:dash 10s linear forwards;
            -moz-animation:dash 10s linear forwards;
            animation:dash 10s linear forwards;
            }
        @-webkit-keyframes dash{
            from{
                stroke-dashoffset:1300;
                }
            to{
                stroke-dashoffset:0;
                }
            }
        .circ1{
            fill:none;
            stroke:#ffffff;
            stroke-width:2;
            stroke-miterlimit:10;
            stroke-dasharray:600;
            stroke-dashoffset:0;
            -webkit-animation:dashcir 5s linear forwards;
            -o-animation:dashcir 5s linear forwards;
            -moz-animation:dashcir 5s linear forwards;
            animation:dashcir 5s linear forwards;
            -webkit-animation-delay: 3s;
            -o-animation-delay: 3s;
            -moz-animation-delay: 3s;
            animation-delay: 3s;
            }
        @-webkit-keyframes dashcir{
            from{
                stroke-dashoffset:600;
                }
            to{
                stroke-dashoffset:0;
                }
        }
        .treslineas{
            fill:none;
            stroke:#ffffff;
            stroke-width:2;
            stroke-miterlimit:10;
        }
        .circ2{
            fill:none;
            stroke:#ffffff;
            stroke-width:2;
            stroke-miterlimit:10;
            stroke-dasharray:600;
            stroke-dashoffset:0;
            -webkit-animation:dashcir2 5s linear forwards;
            -o-animation:dashcir2 5s linear forwards;
            -moz-animation:dashcir2 5s linear forwards;
            animation:dashcir2 5s linear forwards;
            -webkit-animation-delay: 5s;
            -o-animation-delay: 5s;
            -moz-animation-delay: 5s;
            animation-delay: 5s;
            }
        @-webkit-keyframes dashcir2{
            from{
                stroke-dashoffset:600;
                }
            to{
                stroke-dashoffset:0;
                }
        }
        .circ3{
            fill:none;
            stroke:#ffffff;
            stroke-width:2;
            stroke-miterlimit:10;
            stroke-dasharray:600;
            stroke-dashoffset:0;
            -webkit-animation:dashcir3 5s linear forwards;
            -o-animation:dashcir3 5s linear forwards;
            -moz-animation:dashcir3 5s linear forwards;
            animation:dashcir3 5s linear forwards;
            -webkit-animation-delay: 5.2s;
            -o-animation-delay: 5.2s;
            -moz-animation-delay: 5.2s;
            animation-delay: 5.2s;
            }
        @-webkit-keyframes dashcir3{
            from{
                stroke-dashoffset:600;
                }
            to{
                stroke-dashoffset:0;
                }
        }
        .circ4{
            fill:none;
            stroke:#ffffff;
            stroke-width:2;
            stroke-miterlimit:10;
            stroke-dasharray:400;
            stroke-dashoffset:0;
            -webkit-animation:dashcir4 5s linear forwards;
            -o-animation:dashcir4 5s linear forwards;
            -moz-animation:dashcir4 5s linear forwards;
            animation:dashcir4 5s linear forwards;
            -webkit-animation-delay: 5.4s;
            -o-animation-delay: 5.4s;
            -moz-animation-delay: 5.4s;
            animation-delay: 5.4s;
            }
        @-webkit-keyframes dashcir4{
            from{
                stroke-dashoffset:400;
                }
            to{
                stroke-dashoffset:0;
                }
        }
        .linea{
            fill:#ffffff;
            stroke-dasharray:1300;
            stroke-dashoffset:0;
            -webkit-animation:dashlinea 3s linear forwards;
            -o-animation:dashlinea 3s linear forwards;
            -moz-animation:dashlinea 3s linear forwards;
            animation:dashlinea 3s linear forwards;
            }
        @-webkit-keyframes dashlinea{
            from{
                stroke-dashoffset:1300;
                }
            to{
                stroke-dashoffset:0;
                }
        }
        .adportas{
            fill:#ffffff;
            -webkit-animation:transleft 4s linear forwards;
            -o-animation:transleft 4s linear forwards;
            -moz-animation:transleft 4s linear forwards;
            animation:transleft 4s linear forwards;
            }
        @keyframes transleft {
            from {
                transform: translate(20px);
            }
            to {
                transform: translate(0px);
            }
        }
        .c1{
            fill:#ffffff;
            -webkit-animation:tranc1 .3s linear forwards;
            -o-animation:tranc1 .3s linear forwards;
            -moz-animation:tranc1 .3s linear forwards;
            animation:tranc1 .3s linear forwards;
            }
        @keyframes tranc1 {
            from {
                transform: translate(20px);
                opacity: 0;
            }
            to {
                transform: translate(0px);
                opacity: 1;
            }
        }
        .c2{
            fill:#ffffff;
            -webkit-animation:trance .6s linear forwards;
            -o-animation:trance .6s linear forwards;
            -moz-animation:trance .6s linear forwards;
            animation:trance .6s linear forwards;
            }
        @keyframes trance {
            from {
                transform: translate(20px);
                opacity: 0;
            }
            to {
                transform: translate(0px);
                opacity: 1;
            }
        }
        .k{
            fill:#ffffff;
            -webkit-animation:trank .9s linear forwards;
            -o-animation:trank .9s linear forwards;
            -moz-animation:trank .9s linear forwards;
            animation:trank .9s linear forwards;
            }
        @keyframes trank {
            from {
                transform: translate(20px);
                opacity: 0;
            }
            to {
                transform: translate(0px);
                opacity: 1;
            }
        }
        .a{
            fill:#ffffff;
            -webkit-animation:trana 1.2s linear forwards;
            -o-animation:trana 1.2s linear forwards;
            -moz-animation:trana 1.2s linear forwards;
            animation:trana 1.2s linear forwards;
            }
        @keyframes trana {
            from {
                transform: translate(20px);
                opacity: 0;
            }
            to {
                transform: translate(0px);
                opacity: 1;
            }
        }
        .l1{
            fill:#ffffff;
            -webkit-animation:tranl1 1.5s linear forwards;
            -o-animation:tranl1 1.5s linear forwards;
            -moz-animation:tranl1 1.5s linear forwards;
            animation:tranl1 1.5s linear forwards;
            }
        @keyframes tranl1 {
            from {
                transform: translate(20px);
                opacity: 0;
            }
            to {
                transform: translate(0px);
                opacity: 1;
            }
        }
        .l2{
            fill:#ffffff;
            -webkit-animation:tranl2 1.8s linear forwards;
            -o-animation:tranl2 1.8s linear forwards;
            -moz-animation:tranl2 1.8s linear forwards;
            animation:tranl2 1.8s linear forwards;
            }
        @keyframes tranl2 {
            from {
                transform: translate(20px);
                opacity: 0;
            }
            to {
                transform: translate(0px);
                opacity: 1;
            }
        }
        .v8{
            fill:#ffffff;
            -webkit-animation:transright 4s linear forwards;
            -o-animation:transright 4s linear forwards;
            -moz-animation:transright 4s linear forwards;
            animation:transright 4s linear forwards;
            animation-timing-function:ease-in;
            }
        @keyframes transright {
            from {
                transform: translate(-20px);
            }
            to {
                transform: translate(0px);
            }
        }
    </style>
</defs>
<line class="lin-base" x1="100.4" y1="126.5" x2="64.9" y2="126.5"/>
<line class="lin-peq" x1="81.4" y1="125.5" x2="81.4" y2="97.8"/>
<rect x="39.5" y="33.8" class="cuadrado" width="83.8" height="62.4"/>
<path class="circ1" d="M73.7,81.1c0-3.8,3-6.8,6.7-6.8s6.7,3.1,6.7,6.8c0,3.8-3,6.8-6.7,6.8S73.7,84.8,73.7,81.1"/>
<g>
    <line class="treslineas" x1="85.4" y1="76.4" x2="105.7" y2="57.1"/>
    <line class="treslineas" x1="75.1" y1="75.6" x2="56.4" y2="56.3"/>
    <line class="treslineas" x1="80.4" y1="74.2" x2="80.4" y2="57.6"/>
</g>
<path class="circ2" d="M46.1,51.4c0-3.8,3-6.8,6.7-6.8s6.7,3.1,6.7,6.8c0,3.8-3,6.8-6.7,6.8C49.1,58.3,46.1,55.2,46.1,51.4"/>
<path class="circ3" d="M73.7,50.7c0-3.8,3-6.8,6.7-6.8s6.7,3.1,6.7,6.8c0,3.8-3,6.8-6.7,6.8C76.7,57.6,73.7,54.5,73.7,50.7"/>
<path class="circ4" d="M116.1,51.4c0-3.8-3-6.8-6.7-6.8s-6.7,3.1-6.7,6.8c0,3.8,3,6.8,6.7,6.8C113.1,58.3,116.1,55.2,116.1,51.4"/>
    
<rect x="154.6" y="26.2" class="linea" width="1.5" height="106.6"/>
<g>
	<path class="adportas" d="M203.3,43.1c-0.7,0.4-1.7,0.7-2.9,0.8c-1.6,0.1-2.5,0.5-2.5,1.3c0,0.7,0.8,1.2,2,1.2c1.8,0,3.3-0.7,3.3-2.1
		L203.3,43.1L203.3,43.1z M203.3,47.8c-0.8,0.8-2,1.3-3.7,1.3c-2.5,0-4.8-1.3-4.8-3.9c0-2.7,2.2-3.4,4.8-3.7c2-0.1,3.4-0.4,3.4-1.4
		c0-0.7-0.8-1.2-2.2-1.2c-1,0-2.4,0.5-2.6,1.6h-3c0.3-2.2,2.5-3.9,5.6-3.9c4.8,0,5.2,3.1,5.2,4v6.1c0,0.5,0.1,1.4,0.4,2h-2.7
		C203.5,48.6,203.4,48.2,203.3,47.8"/>
	<path class="adportas" d="M214,39.6c-1.7,0-3,1.4-3,3.4c0,1.8,1.3,3.4,3,3.4s3-1.4,3-3.4S215.7,39.6,214,39.6 M220.1,48.9h-2.9v-1.3
		c-0.9,0.9-2.2,1.6-3.7,1.6c-3.1,0-5.7-2.7-5.7-6.1c0-3.5,2.6-6.3,5.7-6.3c1.4,0,2.6,0.5,3.5,1.4v-6.4h3L220.1,48.9L220.1,48.9z"/>
	<path class="adportas" d="M228.7,39.6c-1.7,0-3,1.4-3,3.4c0,1.8,1.3,3.4,3,3.4s3-1.4,3-3.4C231.9,41,230.4,39.6,228.7,39.6 M229.1,49.1
		c-1.3,0-2.6-0.5-3.5-1.4v6.4h-3.1V36.8h3v1.3c0.9-0.9,2.2-1.6,3.7-1.6c3.1,0,5.6,2.7,5.6,6.1C234.9,46.4,232.3,49.1,229.1,49.1"/>
	<path class="adportas" d="M244.8,43c0-2.1-1.3-3.5-3-3.5c-1.6,0-3,1.4-3,3.5c0,2,1.3,3.4,3,3.4S244.8,44.9,244.8,43 M247.9,43
		c0,3.5-2.7,6.3-6,6.3s-6-2.6-6-6.3c0-3.5,2.7-6.3,6-6.3S247.9,39.3,247.9,43"/>
	<path class="adportas" d="M256.4,39.7c-1.2-0.1-2.2,0-3,0.8c-0.7,0.7-0.8,1.7-0.8,2.6V49h-3V37.1h2.9v1.2c0.9-1.2,2.4-1.7,3.8-1.4v2.9
		L256.4,39.7L256.4,39.7z"/>
	<path class="adportas" d="M264,48.9c-3.5,0.4-5.4-1.7-5.4-5v-4.2h-1.4V37h1.4v-3h3v3h2.2v2.7h-2.2v4.2c0,1.7,0.8,2.2,2.4,2.2V48.9
		L264,48.9z"/>
	<path class="adportas" d="M273.3,43.1c-0.7,0.4-1.7,0.7-2.9,0.8c-1.6,0.1-2.5,0.5-2.5,1.3c0,0.7,0.8,1.2,2,1.2c1.8,0,3.3-0.7,3.3-2.1
		v-1.2H273.3z M273.4,47.8c-0.8,0.8-2,1.3-3.7,1.3c-2.5,0-4.8-1.3-4.8-3.9c0-2.7,2.2-3.4,4.8-3.7c2-0.1,3.4-0.4,3.4-1.4
		c0-0.7-0.8-1.2-2.2-1.2c-1,0-2.4,0.5-2.6,1.6h-3c0.3-2.2,2.5-3.9,5.6-3.9c4.8,0,5.2,3.1,5.2,4v6.1c0,0.5,0.1,1.4,0.4,2h-2.9
		C273.5,48.6,273.5,48.2,273.4,47.8"/>
	<path class="adportas" d="M283.6,49.1c-3,0-5.2-1.6-5.6-4.2h3.1c0.4,1,1.7,1.4,2.6,1.4c1.2,0,2.2-0.4,2.2-1c0-0.7-0.4-0.9-2.5-1.3
		c-2.1-0.3-5-0.9-5-3.5c0-1.8,1.7-3.8,5.1-3.8c2.7,0,4.8,1.4,5.2,3.7h-3.1c-0.1-0.5-0.9-1-2-1c-1.4,0-2,0.5-2,0.9
		c0,0.7,0.9,0.8,2.4,1c3,0.5,5.1,1.2,5.1,3.7C288.8,47.4,286.6,49.1,283.6,49.1"/>
</g>
<path class="c1" d="M221.8,90.9c-0.4,3.8-1.8,6.7-4.2,8.7c-2.3,2-5.5,3.1-9.4,3.1c-4.2,0-7.6-1.5-10.1-4.5s-3.8-7-3.8-12.1v-3.4
	c0-3.3,0.6-6.2,1.8-8.7s2.9-4.4,5-5.8c2.2-1.3,4.7-2,7.6-2c3.8,0,6.8,1.1,9.1,3.2s3.6,5,4,8.8h-4.7c-0.4-2.8-1.3-4.9-2.7-6.2
	c-1.4-1.3-3.3-1.9-5.7-1.9c-3,0-5.4,1.1-7.1,3.3c-1.7,2.2-2.6,5.4-2.6,9.5v3.4c0,3.9,0.8,6.9,2.4,9.2c1.6,2.3,3.9,3.4,6.8,3.4
	c2.6,0,4.6-0.6,6-1.8s2.3-3.2,2.8-6.2H221.8z"/>
<path class="c2" d="M254.5,90.9c-0.4,3.8-1.8,6.7-4.2,8.7c-2.3,2-5.5,3.1-9.4,3.1c-4.2,0-7.6-1.5-10.1-4.5s-3.8-7-3.8-12.1v-3.4
	c0-3.3,0.6-6.2,1.8-8.7s2.9-4.4,5-5.8c2.2-1.3,4.7-2,7.6-2c3.8,0,6.8,1.1,9.1,3.2s3.6,5,4,8.8h-4.7c-0.4-2.8-1.3-4.9-2.7-6.2
	c-1.4-1.3-3.3-1.9-5.7-1.9c-3,0-5.4,1.1-7.1,3.3c-1.7,2.2-2.6,5.4-2.6,9.5v3.4c0,3.9,0.8,6.9,2.4,9.2c1.6,2.3,3.9,3.4,6.8,3.4
	c2.6,0,4.6-0.6,6-1.8s2.3-3.2,2.8-6.2H254.5z"/>
<path class="k" d="M270,85.7l-4.4,4.5v12h-4.7V66.7h4.7v17.6l15.9-17.6h5.7l-14,15.7l15.2,19.8h-5.8L270,85.7z"/>
<path class="a" d="M308,102.2c-0.3-0.5-0.5-1.4-0.6-2.8c-2.1,2.2-4.6,3.3-7.6,3.3c-2.6,0-4.8-0.7-6.4-2.2
	c-1.7-1.5-2.5-3.3-2.5-5.6c0-2.8,1-4.9,3.2-6.4c2.1-1.5,5.1-2.3,8.9-2.3h4.4v-2.1c0-1.6-0.5-2.8-1.4-3.8c-0.9-0.9-2.3-1.4-4.2-1.4
	c-1.6,0-3,0.4-4.1,1.2c-1.1,0.8-1.6,1.8-1.6,3h-4.6c0-1.3,0.5-2.6,1.4-3.8c0.9-1.2,2.2-2.2,3.8-2.9c1.6-0.7,3.4-1.1,5.3-1.1
	c3.1,0,5.5,0.8,7.2,2.3s2.6,3.6,2.7,6.3v12.2c0,2.4,0.3,4.4,0.9,5.8v0.4L308,102.2L308,102.2z M300.5,98.8c1.4,0,2.8-0.4,4-1.1
	s2.2-1.7,2.8-2.9v-5.4h-3.6c-5.6,0-8.3,1.6-8.3,4.9c0,1.4,0.5,2.5,1.4,3.3C297.8,98.4,299,98.8,300.5,98.8z"/>
<path class="l1" d="M323.9,102.2h-4.5V64.7h4.5V102.2z"/>
<path class="l2" d="M336.1,102.2h-4.5V64.7h4.5V102.2z"/>
<g>
	<path class="v8" d="M314.8,125l2.2-7.6h2.5l-3.7,10.6h-2.1l-3.7-10.6h2.5L314.8,125z"/>
	<path class="v8" d="M320.3,125.5c0.4,0,0.8,0.1,1,0.4s0.4,0.6,0.4,0.9c0,0.4-0.1,0.7-0.4,0.9c-0.2,0.2-0.6,0.4-1,0.4
		s-0.8-0.1-1-0.4c-0.2-0.2-0.4-0.5-0.4-0.9s0.1-0.7,0.4-0.9C319.5,125.6,319.9,125.5,320.3,125.5z"/>
	<path class="v8" d="M337.2,117.5c0,0.7-0.2,1.3-0.5,1.9c-0.4,0.5-0.8,1-1.5,1.3c0.7,0.3,1.3,0.8,1.7,1.4c0.4,0.6,0.6,1.3,0.6,2
		c0,1.2-0.4,2.2-1.3,3s-2,1.1-3.4,1.1s-2.5-0.4-3.4-1.1c-0.8-0.7-1.3-1.7-1.3-3c0-0.8,0.2-1.4,0.6-2.1s1-1.1,1.7-1.4
		c-0.6-0.3-1.1-0.7-1.5-1.3c-0.4-0.5-0.5-1.2-0.5-1.9c0-1.2,0.4-2.2,1.2-2.9c0.8-0.7,1.8-1.1,3.2-1.1c1.3,0,2.4,0.4,3.2,1.1
		C336.8,115.4,337.2,116.3,337.2,117.5z M335.1,124c0-0.7-0.2-1.3-0.6-1.7c-0.4-0.4-1-0.6-1.7-0.6s-1.2,0.2-1.7,0.6s-0.6,1-0.6,1.7
		s0.2,1.3,0.6,1.7c0.4,0.4,1,0.6,1.7,0.6s1.3-0.2,1.7-0.6C334.9,125.3,335.1,124.7,335.1,124z M334.8,117.6c0-0.6-0.2-1.1-0.5-1.5
		s-0.8-0.6-1.4-0.6s-1.1,0.2-1.4,0.6s-0.5,0.9-0.5,1.6s0.2,1.2,0.5,1.6c0.4,0.4,0.8,0.6,1.4,0.6s1.1-0.2,1.4-0.6
		C334.7,118.8,334.8,118.3,334.8,117.6z"/>
</g>
</svg>
