<svg id="SvgjsSvg1023" xmlns="http://www.w3.org/2000/svg" version="1.1" xmlns:xlink="http://www.w3.org/1999/xlink" xmlns:svgjs="http://svgjs.com/svgjs" width="18" height="17" viewBox="0 0 18 17"><title>Forma 19</title><desc>Created with Avocode.</desc><defs id="SvgjsDefs1024"></defs><path id="SvgjsPath1025" d="M1168.44 463L1169.16 459.127C1167.77 457.797 1167 456.107 1167 454.343C1167 450.291 1171.04 446.995 1176 446.995C1180.96 446.995 1185 450.291 1185 454.343C1185 458.39500000000004 1180.96 461.69100000000003 1176 461.69100000000003C1175.1 461.69100000000003 1174.21 461.583 1173.36 461.369ZM1176 447.825C1171.49 447.825 1167.83 450.74899999999997 1167.83 454.34299999999996C1167.83 455.93899999999996 1168.56 457.47499999999997 1169.8899999999999 458.66799999999995L1170.06 458.82399999999996L1169.51 461.77099999999996L1173.33 460.50399999999996L1173.4399999999998 460.53499999999997C1174.2699999999998 460.75199999999995 1175.1299999999999 460.86199999999997 1175.9999999999998 460.86199999999997C1180.5099999999998 460.86199999999997 1184.1799999999998 457.93699999999995 1184.1799999999998 454.34299999999996C1184.1799999999998 450.74899999999997 1180.5099999999998 447.825 1175.9999999999998 447.825Z " fill="#ffffff" fill-opacity="1" transform="matrix(1,0,0,1,-1167,-446)"></path></svg>