<?xml version="1.0" encoding="utf-8"?>
<!-- Generator: Adobe Illustrator 23.0.1, SVG Export Plug-In . SVG Version: 6.00 Build 0)  -->
<svg version="1.1" id="Capa_1" xmlns="http://www.w3.org/2000/svg" xmlns:xlink="http://www.w3.org/1999/xlink" x="0px" y="0px"
	 viewBox="0 0 13.92 10.21" style="enable-background:new 0 0 13.92 10.21;" xml:space="preserve">
<style type="text/css">
	.st0{fill:#cccccc;}
</style>
<g>
	<g>
		<path class="st0" d="M13.23,10.12H0.7c-0.33,0-0.61-0.27-0.61-0.61V0.7c0-0.33,0.27-0.61,0.61-0.61h12.54
			c0.33,0,0.61,0.27,0.61,0.61v8.82C13.84,9.85,13.57,10.12,13.23,10.12z M0.84,9.38h12.25V0.84H0.84V9.38z"/>
	</g>
	<g>
		<path class="st0" d="M10.09,4.9L5.44,2.58C5.37,2.54,5.29,2.55,5.22,2.59c-0.07,0.04-0.11,0.12-0.11,0.2v4.64
			c0,0.08,0.04,0.16,0.11,0.2c0.07,0.04,0.15,0.05,0.23,0.01l4.64-2.32c0.08-0.04,0.13-0.12,0.13-0.21
			C10.21,5.02,10.16,4.94,10.09,4.9L10.09,4.9z M5.57,7.05V3.16l3.89,1.95L5.57,7.05z"/>
	</g>
</g>
</svg>
