<?xml version="1.0" encoding="utf-8"?>
<!-- Generator: Adobe Illustrator 21.1.0, SVG Export Plug-In . SVG Version: 6.00 Build 0)  -->
<svg version="1.1" id="Capa_1" xmlns="http://www.w3.org/2000/svg" xmlns:xlink="http://www.w3.org/1999/xlink" x="0px" y="0px"
	 viewBox="0 0 19 16" style="enable-background:new 0 0 19 16;" xml:space="preserve">
<style type="text/css">
	.st0{fill:#F8F8F8;}
</style>
<g>
	<g>
		<path class="st0" d="M12.8,11.7c0.1,0.1,0.2,0.1,0.4,0.1s0.3,0,0.4-0.1l3.3-3.3c0,0,0,0,0.1-0.1c0,0,0,0,0,0c0,0,0,0,0-0.1
			c0,0,0,0,0,0c0,0,0,0,0-0.1c0,0,0-0.1,0-0.1s0-0.1,0-0.1c0,0,0,0,0-0.1c0,0,0,0,0,0c0,0,0,0,0-0.1c0,0,0,0,0,0c0,0,0,0-0.1-0.1
			l-3.3-3.3c-0.2-0.2-0.5-0.2-0.7,0c-0.2,0.2-0.2,0.5,0,0.7l2.4,2.4H6.6c-0.3,0-0.5,0.2-0.5,0.5c0,0.3,0.2,0.5,0.5,0.5h8.6l-2.4,2.4
			C12.6,11.2,12.6,11.6,12.8,11.7z"/>
		<path class="st0" d="M3.3,15.2h6.5c0.3,0,0.5-0.2,0.5-0.5c0,0,0.1-0.5-1-0.5c-0.2,0-5.6,0-5.6,0V2.1h5.6c0,0,1,0.1,1-0.5
			c0-0.1-0.2-0.5-0.5-0.5H3.3C3,1.1,2.8,1.3,2.8,1.6v13.1C2.8,14.9,3,15.2,3.3,15.2z"/>
	</g>
</g>
</svg>
