<?xml version="1.0" encoding="utf-8"?>
<!-- Generator: Adobe Illustrator 23.0.2, SVG Export Plug-In . SVG Version: 6.00 Build 0)  -->
<svg version="1.1" id="Capa_1" xmlns="http://www.w3.org/2000/svg" xmlns:xlink="http://www.w3.org/1999/xlink" x="0px" y="0px"
	 viewBox="0 0 320 240" style="enable-background:new 0 0 320 240;" xml:space="preserve">
<style type="text/css">
	.st0{fill:#EFEFEF;}
	.st1{fill:#747C7C;}
	.st2{fill:#B3B2B2;}
	.st3{fill:#BCBCBB;}
	.st4{fill:#4D5251;}
	.st5{fill:#575757;}
	.st6{fill:#DAE3EE;}
</style>
<g>
	<g>
		<defs>
			<rect id="SVGID_1_" x="0" y="0" width="320" height="240"/>
		</defs>
		<use xlink:href="#SVGID_1_"  style="overflow:visible;fill:#B9CDDC;"/>
		<clipPath id="SVGID_2_">
			<use xlink:href="#SVGID_1_"  style="overflow:visible;"/>
		</clipPath>
	</g>
	<g>
		<circle class="st0" cx="160" cy="120" r="73.8"/>
		<path class="st1" d="M218.7,164.7H101.1c0,0,0.7-10.5,5.1-16.7c4.4-6.2,33.1-16.7,33.1-16.7c-2.5,11.3,8.4,22.5,8.4,22.2
			c6.2-8.7,12-7.6,12-7.6s8-0.4,10.2,7.3c0,0.4,12.7-10.5,10.2-21.8c0,0,29.5,11.3,33.1,16.7C216.8,153.1,218.7,164.7,218.7,164.7z"
			/>
		<path class="st2" d="M176.4,124.4c0,0,2.2,12-16.7,21.8l0,0c-18.5-9.5-16.7-21.8-16.7-21.8l0,0c0-1.5,0.7-2.5,1.1-3.6
			c4,7.6,9.5,12.7,15.6,12.7c5.8,0,11.6-5.1,15.6-12.7C176,121.8,176.4,123.3,176.4,124.4L176.4,124.4z"/>
		<path class="st3" d="M184.7,100.7c-0.7-0.7-1.5-0.7-2.5-0.4l0,0c0.4-9.5-5.1-14.2-5.1-14.2c-5.8-2.2-8-8-9.1-12.4
			c-2.5,2.9-6.5,9.1-12.7,12c-17.8,7.6-17.5,14.9-17.5,14.9l0,0v-0.4l0,0c-0.7-0.4-1.8-0.4-2.5,0.4c-1.8,1.5-1.8,5.5,0,8.7
			s4.4,5.1,6.2,4c4.4,10.9,11.3,19.6,18.9,19.6s14.5-8.7,18.5-20c1.8,1.1,4.4-0.7,6.2-4C186.5,106.2,186.5,102.2,184.7,100.7z"/>
		<path class="st1" d="M185.5,89.4c0,3.6-0.4,7.6-1.1,11.3c-0.7-0.7-1.5-0.7-2.5-0.4l0,0c0.4-9.5-5.1-10.9-5.1-10.9
			c-5.8-2.2-8-11.6-9.1-15.6c-2.5,2.9-5.8,12.7-12.4,15.6c-17.8,7.6-17.8,11.3-17.8,11.3l0,0v-0.4l0,0c-0.7-0.4-1.8-0.4-2.5,0.4
			c-0.7-3.6-1.1-7.6-1.1-11.3c0-21.1,11.6-29.5,25.8-29.5S185.5,68.4,185.5,89.4z"/>
		<path class="st4" d="M131.6,111.6c0.4,1.5,1.5,2.5,2.9,2.5c1.8,0,3.3-1.5,3.3-3.3V95.3c0-1.1-0.4-2.2-1.1-2.5
			c0.7-5.5,3.6-10.5,6.9-14.2c4.7-5.5,13.1-8.7,22.5-6.5c3.6,1.1,7.3,2.9,10.2,6.5c3.3,3.6,5.8,8.7,6.9,14.2
			c-1.8,1.8-1.1,2.9-1.1,18.2c0,1.1,0.7,2.2,1.5,2.9v2.5c0,9.1-8.4,9.5-17.8,12.4c-2.2-2.5-5.8-0.7-5.8,2.5c0,4,5.5,5.1,6.5,1.1
			c9.8-2.9,20.4-4,20.4-15.6v-2.5c0.7-0.4,1.5-1.1,1.5-2.2c4.4,0,8-4,8-8.7c0-4.7-3.6-8.4-8-8.7c-0.4-1.1-0.7-1.8-1.5-2.2
			c0-2.2,0-4.7-0.4-6.5c-0.4-1.8-0.7-3.6-1.8-5.8c-0.7-1.8-1.8-4-3.6-6.2c-1.5-2.2-3.3-4-5.5-5.5c-18.9-13.5-44.4,2.5-42.5,24
			c-0.7,0.4-1.1,1.1-1.5,2.2c-4.4,0-8,4-8,8.7S127.3,111.6,131.6,111.6z"/>
		<path class="st5" d="M101.1,164.7c16.1,19.2,36.9,29.1,58.8,29.1s44.2-10.7,58.8-29.1H101.1z"/>
	</g>
	<path class="st6" d="M161.9,21.3c-12.4-0.2-24.3,1.8-35.3,5.8c0,0-3.1,2.5-1.6,6.7c1.5,4.2,5.9,4,5.9,4c10.2-3.6,21.4-5.4,33-4.9
		c46.1,2.1,82.9,40.3,83.2,86.5c0.3,48.7-39.3,88.2-88,87.7c-46.5-0.4-84.8-37.8-86.3-84.2c-0.7-22.6,7.1-43.4,20.6-59.2
		c0,0,1.6-4-1.9-6.7c-3.5-2.7-7.1-0.5-7.1-0.5c-14.6,17.3-23.3,39.7-23.2,64.1c0.3,53.7,44.1,97.6,97.7,98.1
		c55.2,0.5,100.1-44.3,99.6-99.5C258.3,66,215.1,22.3,161.9,21.3z"/>
</g>
</svg>
